<svg width="64" height="64" viewBox="0 0 64 64" fill="none" xmlns="http://www.w3.org/2000/svg">
<mask id="path-1-inside-1_959_598" fill="white">
<path d="M58 16V48H6V16H58ZM58 14H6C4.9 14 4 14.9 4 16V48C4 49.1 4.9 50 6 50H58C59.1 50 60 49.1 60 48V16C60 14.9 59.1 14 58 14Z"/>
</mask>
<path d="M58 16H60V14H58V16ZM58 48V50H60V48H58ZM6 48H4V50H6V48ZM6 16V14H4V16H6ZM56 16V48H60V16H56ZM58 46H6V50H58V46ZM8 48V16H4V48H8ZM6 18H58V14H6V18ZM58 12H6V16H58V12ZM6 12C3.79543 12 2 13.7954 2 16H6V12ZM2 16V48H6V16H2ZM2 48C2 50.2046 3.79543 52 6 52V48H2ZM6 52H58V48H6V52ZM58 52C60.2046 52 62 50.2046 62 48H58V52ZM62 48V16H58V48H62ZM62 16C62 13.7954 60.2046 12 58 12V16H62Z" fill="black" mask="url(#path-1-inside-1_959_598)"/>
<path d="M10 32V24H12C13.1 24 14 23.1 14 22V20H28" stroke="black" stroke-width="2" stroke-miterlimit="10"/>
<path d="M10 32V40H12C13.1 40 14 40.9 14 42V44H28" stroke="black" stroke-width="2" stroke-miterlimit="10"/>
<path d="M54 32V24H52C50.9 24 50 23.1 50 22V20H36" stroke="black" stroke-width="2" stroke-miterlimit="10"/>
<path d="M54 32V40H52C50.9 40 50 40.9 50 42V44H36" stroke="black" stroke-width="2" stroke-miterlimit="10"/>
<path d="M36 28H30C28.9 28 28 28.9 28 30C28 31.1 28.9 32 30 32H34C35.1 32 36 32.9 36 34C36 35.1 35.1 36 34 36H28" stroke="black" stroke-width="2" stroke-miterlimit="10"/>
<path d="M32 22V28" stroke="black" stroke-width="2" stroke-miterlimit="10"/>
<path d="M32 36V42" stroke="black" stroke-width="2" stroke-miterlimit="10"/>
</svg>
