<svg width="64" height="64" viewBox="0 0 64 64" fill="none" xmlns="http://www.w3.org/2000/svg">
<path d="M24 55C24 52.8 22.2 51 20 51" stroke="black" stroke-width="2" stroke-miterlimit="10"/>
<path d="M24 55C24 57.2 25.8 59 28 59" stroke="black" stroke-width="2" stroke-miterlimit="10"/>
<path d="M48 35H53C55.2 35 57 36.8 57 39C57 41.2 55.2 43 53 43" stroke="black" stroke-width="2" stroke-miterlimit="10"/>
<path d="M20 51H11C8.8 51 7 49.2 7 47C7 44.8 8.8 43 11 43H14" stroke="black" stroke-width="2" stroke-miterlimit="10"/>
<path d="M37 59C43.62 59 49 53.62 49 47" stroke="black" stroke-width="2" stroke-miterlimit="10"/>
<path d="M28 59H37" stroke="black" stroke-width="2" stroke-miterlimit="10"/>
<path d="M23 4C23 10.66 19 10.66 19 17.32C19 23.98 23 23.98 23 30.66C23 37.34 19 37.32 19 44" stroke="black" stroke-width="2" stroke-miterlimit="10"/>
<path d="M31 4C31 10.66 27 10.66 27 17.32C27 23.98 31 23.98 31 30.66C31 37.34 27 37.32 27 44" stroke="black" stroke-width="2" stroke-miterlimit="10"/>
<path d="M35 4C35 10.66 31 10.66 31 17.32C31 23.98 35 23.98 35 30.66C35 37.34 31 37.32 31 44" stroke="black" stroke-width="2" stroke-miterlimit="10"/>
<path d="M43 4C43 10.66 39 10.66 39 17.32C39 23.98 43 23.98 43 30.66C43 37.34 39 37.32 39 44" stroke="black" stroke-width="2" stroke-miterlimit="10"/>
<path d="M23 5H43" stroke="black" stroke-width="2" stroke-miterlimit="10"/>
<path d="M18 45H40" stroke="black" stroke-width="2" stroke-miterlimit="10"/>
<path d="M49 47C49 44.8 50.8 43 53 43" stroke="black" stroke-width="2" stroke-miterlimit="10"/>
</svg>
