<svg width="209" height="34" viewBox="0 0 209 34" fill="none" xmlns="http://www.w3.org/2000/svg">
<path d="M0 33.6087H35.1304V0.265625H0V33.6087ZM27.9534 25.0707C25.7241 26.8937 22.74 27.9356 19.4823 28.5143C16.224 29.093 12.7599 29.1799 10.1876 27.9356C7.61528 26.6913 5.93482 24.0871 4.87202 21.3674C3.8431 18.6185 3.43132 15.725 4.28876 13.0339C5.18059 10.3141 7.40992 7.79636 10.3935 6.34959C13.3776 4.90282 17.1497 4.5557 20.2365 5.42376C23.3232 6.32096 25.7585 8.43334 27.7819 10.7477C29.8053 13.0625 31.4519 15.522 31.5202 18.0684C31.589 20.6148 30.1483 23.2477 27.9534 25.0707Z" fill="white"/>
<path d="M64.7016 8.76562C64.699 8.83696 64.6948 8.90779 64.6948 8.97912C64.6948 14.2679 64.6948 19.5561 64.6948 24.8449V25.0634H61.2582V16.4491C61.2492 16.4451 61.2396 16.441 61.2306 16.4375C61.1989 16.4837 61.165 16.529 61.1364 16.5767C59.4872 19.3612 57.8374 22.1452 56.1924 24.9318C56.1252 25.0458 56.0522 25.082 55.9172 25.081C54.8856 25.0749 53.8546 25.0754 52.823 25.081C52.697 25.0815 52.6357 25.0428 52.5758 24.9418C50.9298 22.1558 49.2795 19.3718 47.6302 16.5877C47.6027 16.5415 47.572 16.4973 47.5143 16.4591V25.078H44.0703V8.76562C45.2199 8.76562 46.37 8.76562 47.5196 8.76562C47.5228 8.77517 47.5249 8.78522 47.5297 8.79426C49.7812 12.7201 52.0333 16.646 54.2854 20.5714C54.3066 20.6085 54.3331 20.6427 54.3643 20.6894C54.4013 20.6266 54.4283 20.5829 54.4537 20.5382C55.4276 18.8528 56.4025 17.1679 57.3759 15.4821C58.6684 13.2436 59.9604 11.0046 61.2523 8.76562C62.4019 8.76562 63.552 8.76562 64.7016 8.76562Z" fill="white"/>
<path d="M188.205 8.76663C188.201 8.83746 188.196 8.90879 188.196 8.97963C188.196 14.2684 188.196 19.5576 188.196 24.8464V25.0649C188.124 25.0679 188.071 25.0724 188.019 25.0724C186.982 25.0724 185.946 25.0749 184.909 25.0684C184.831 25.0684 184.731 25.0267 184.679 24.9725C181.319 21.4349 177.963 17.8938 174.606 14.3533C174.564 14.3086 174.521 14.2644 174.448 14.19V25.0659H170.994C170.994 25.0046 170.994 24.9408 170.994 24.877C170.994 19.532 170.994 14.187 170.994 8.84198C170.994 8.81686 170.992 8.79124 170.99 8.76613C172.14 8.76613 173.29 8.76613 174.44 8.76613C174.462 8.79376 174.483 8.8234 174.508 8.84902C177.878 12.4026 181.248 15.9558 184.617 19.5099C184.648 19.5426 184.669 19.5842 184.695 19.6214C184.712 19.6129 184.729 19.6043 184.746 19.5958C184.746 19.537 184.746 19.4783 184.746 19.4195C184.746 15.9392 184.746 12.4589 184.746 8.97862C184.746 8.90779 184.752 8.83696 184.756 8.76562C185.905 8.76562 187.055 8.76562 188.205 8.76562L188.205 8.76663Z" fill="white"/>
<path d="M120.828 8.76613C121.163 8.80682 121.499 8.83646 121.832 8.89071C122.712 9.03489 123.53 9.32323 124.23 9.86628C125.063 10.5138 125.539 11.3688 125.752 12.3504C125.865 12.8754 125.941 13.4174 125.947 13.9524C125.969 15.9422 125.961 17.933 125.953 19.9228C125.949 20.6799 125.829 21.4234 125.555 22.1382C125.001 23.585 123.9 24.449 122.349 24.8333C121.621 25.0137 120.878 25.0684 120.13 25.0694C118.288 25.0719 116.445 25.0719 114.602 25.0694C113.794 25.0684 112.993 25.0066 112.213 24.7906C110.471 24.3079 109.422 23.2082 108.997 21.552C108.853 20.9903 108.783 20.4192 108.781 19.8435C108.774 17.8888 108.773 15.9342 108.781 13.9795C108.784 13.2441 108.888 12.5182 109.136 11.8169C109.679 10.2812 110.813 9.3579 112.455 8.98465C112.88 8.8877 113.322 8.85454 113.757 8.79175C113.804 8.78471 113.85 8.77467 113.897 8.76562C116.207 8.76562 118.517 8.76562 120.828 8.76562L120.828 8.76613ZM122.505 16.9248C122.505 16.9248 122.509 16.9248 122.51 16.9248C122.51 16.2275 122.517 15.5303 122.507 14.833C122.502 14.5391 122.489 14.2412 122.435 13.9524C122.259 12.9994 121.688 12.369 120.68 12.1394C120.38 12.0711 120.065 12.0369 119.756 12.0339C118.467 12.0219 117.178 12.0274 115.889 12.0279C115.352 12.0279 114.814 12.0204 114.278 12.0359C113.39 12.0626 112.743 12.5187 112.442 13.3114C112.271 13.7625 112.22 14.2312 112.219 14.7069C112.219 16.1728 112.216 17.6386 112.222 19.1045C112.223 19.3577 112.243 19.6139 112.289 19.8631C112.46 20.7864 112.99 21.4309 113.969 21.671C114.328 21.7594 114.71 21.7981 115.082 21.8016C116.602 21.8157 118.122 21.8107 119.643 21.8046C119.91 21.8036 120.18 21.785 120.444 21.7423C121.362 21.5947 122.038 21.1451 122.324 20.278C122.427 19.9665 122.487 19.6315 122.496 19.3054C122.521 18.5122 122.504 17.7175 122.504 16.9238L122.505 16.9248Z" fill="white"/>
<path d="M141.881 8.76562C142.221 8.80632 142.562 8.83947 142.9 8.8892C143.438 8.96807 143.958 9.10873 144.454 9.32575C145.623 9.83764 146.377 10.6891 146.713 11.8616C147.048 13.0291 147.053 14.2096 146.735 15.3786C146.319 16.9062 145.248 17.8326 143.671 18.2636C142.838 18.4916 141.983 18.5539 141.121 18.5504C140.795 18.5489 140.469 18.5504 140.126 18.5831C142.767 20.7381 145.408 22.8932 148.084 25.078H147.905C146.299 25.078 144.692 25.079 143.085 25.0744C143.004 25.0744 142.905 25.0408 142.844 24.9905C140.237 22.8741 137.634 20.7537 135.027 18.6378C134.962 18.5851 134.855 18.5539 134.768 18.5539C133.172 18.5489 131.576 18.5504 129.98 18.5504C129.917 18.5504 129.853 18.5504 129.779 18.5504V15.2942H130C133.551 15.2942 137.102 15.2957 140.654 15.2927C141.246 15.2927 141.836 15.2535 142.399 15.0591C142.926 14.8777 143.332 14.5808 143.472 14.0343C143.66 13.3029 143.339 12.6598 142.622 12.3424C142.136 12.1274 141.616 12.052 141.087 12.0384C140.454 12.0224 139.82 12.0284 139.186 12.0284C136.123 12.0279 133.061 12.0284 129.998 12.0284H129.769V11.8355C129.769 10.8735 129.769 9.91098 129.769 8.94898C129.769 8.8882 129.763 8.82741 129.76 8.76663C133.8 8.76663 137.841 8.76663 141.881 8.76663L141.881 8.76562Z" fill="white"/>
<path d="M105.066 8.76562V12.0274C104.991 12.0274 104.923 12.0274 104.857 12.0274C101.29 12.0274 97.7225 12.0249 94.1557 12.0314C93.8143 12.0319 93.4661 12.056 93.1337 12.1243C92.1243 12.3318 91.5199 12.9608 91.3701 13.9313C91.3315 14.182 91.3103 14.4377 91.3092 14.6914C91.3034 16.1778 91.2997 17.6643 91.3119 19.1502C91.3145 19.4783 91.3505 19.8128 91.4267 20.1323C91.6459 21.0511 92.2831 21.5751 93.2459 21.7429C93.5497 21.7961 93.8646 21.8127 94.1748 21.8132C97.731 21.8157 101.287 21.8122 104.843 21.8102C104.912 21.8102 104.981 21.8102 105.058 21.8102V25.0689C105.014 25.0719 104.968 25.0775 104.922 25.0775C101.087 25.0775 97.2509 25.0795 93.4153 25.0749C92.6224 25.0739 91.8406 24.975 91.0859 24.7333C89.4721 24.2164 88.5152 23.1374 88.1103 21.5911C87.9594 21.0154 87.888 20.4297 87.8869 19.8379C87.8822 17.8933 87.8806 15.9492 87.8875 14.0046C87.8901 13.2225 88.0023 12.4524 88.2818 11.7114C88.8402 10.232 89.9622 9.35036 91.5511 8.98666C91.9767 8.8892 92.4186 8.85605 92.8532 8.79275C92.9056 8.78522 92.9574 8.77517 93.0098 8.76613C97.0286 8.76613 101.047 8.76613 105.067 8.76613L105.066 8.76562Z" fill="white"/>
<path d="M201.553 8.76562C204.033 14.197 206.513 19.6285 209.001 25.077H208.835C207.605 25.077 206.375 25.0749 205.145 25.08C205.02 25.0805 204.973 25.0383 204.928 24.9338C203.259 21.0355 201.586 17.1383 199.914 13.2411C199.898 13.2039 199.883 13.1662 199.853 13.0974C199.819 13.1697 199.796 13.217 199.775 13.2652C198.103 17.1514 196.43 21.0375 194.762 24.9252C194.711 25.0438 194.651 25.0805 194.518 25.08C193.299 25.0749 192.079 25.077 190.86 25.077H190.676C190.703 25.0121 190.723 24.9619 190.746 24.9127C193.181 19.5777 195.618 14.2428 198.053 8.90729C198.074 8.86157 198.087 8.81285 198.104 8.76562C199.254 8.76562 200.404 8.76562 201.554 8.76562H201.553Z" fill="white"/>
<path d="M85.5629 8.76613C85.5317 8.81787 85.5047 8.87263 85.4682 8.92085C83.0589 12.0927 80.6486 15.2635 78.2419 18.4369C78.1874 18.5087 78.1525 18.6112 78.1519 18.6996C78.1472 20.7562 78.1482 22.8129 78.1482 24.8695V25.0649H74.7058C74.7058 25.0021 74.7058 24.9423 74.7058 24.8825C74.7058 22.8209 74.7063 20.7587 74.7026 18.6971C74.7026 18.6167 74.6799 18.5223 74.6322 18.4585C72.1875 15.2419 69.739 12.0279 67.2911 8.81385C67.2784 8.79727 67.2652 8.7817 67.252 8.76562C68.5953 8.76562 69.9386 8.76562 71.2819 8.76562C71.3078 8.80832 71.3295 8.85454 71.3608 8.89423C73.0116 10.9835 74.6635 13.0718 76.3153 15.1605C76.346 15.1992 76.3789 15.2354 76.4164 15.2791C76.4551 15.2314 76.4815 15.1997 76.5069 15.1671C77.4639 13.9584 78.4213 12.7498 79.3772 11.5406C80.1076 10.6163 80.8365 9.69096 81.5658 8.76613C82.8985 8.76613 84.2307 8.76613 85.5634 8.76613H85.5629Z" fill="white"/>
<path d="M167.573 8.76562C167.577 8.81084 167.585 8.85605 167.585 8.90176C167.586 9.88888 167.586 10.8765 167.585 11.8636C167.585 11.9129 167.58 11.9626 167.577 12.0188H150.391V8.76562C156.118 8.76562 161.846 8.76562 167.573 8.76562Z" fill="white"/>
<path d="M150.398 25.0688V21.8281H167.573V25.0688H150.398Z" fill="white"/>
<path d="M167.575 15.3047V18.5363H150.402V15.3047H167.575Z" fill="white"/>
</svg>
