<svg width="56" height="36" viewBox="0 0 56 36" fill="none" xmlns="http://www.w3.org/2000/svg">
<g clip-path="url(#clip0_958_510)">
<path d="M29.9985 36H25.9985C25.4185 36 24.7885 35.92 24.1285 35.75C21.2685 35.03 18.8885 33.11 17.4285 30.34C15.7785 27.22 15.5385 23.53 16.7685 20.21L23.1885 2.79C23.9785 1.04 25.6385 0 27.5585 0H28.4585C30.3585 0 32.0185 1.04 32.7785 2.71L39.2285 20.21C40.4585 23.53 40.2185 27.23 38.5685 30.34C37.1085 33.11 34.7285 35.03 31.8685 35.75C31.2185 35.91 30.5885 36 29.9985 36ZM27.5485 2C26.4185 2 25.4685 2.58 25.0285 3.55L18.6385 20.9C17.6285 23.65 17.8285 26.83 19.1885 29.41C20.3885 31.67 22.3085 33.23 24.6085 33.81C25.1085 33.93 25.5685 34 25.9885 34H29.9885C30.4085 34 30.8785 33.94 31.3685 33.81C33.6685 33.23 35.5885 31.67 36.7885 29.41C38.1485 26.83 38.3585 23.65 37.3385 20.9L30.9285 3.47C30.5185 2.57 29.5785 2 28.4485 2H27.5485Z" fill="black"/>
<path d="M4 10C1.79 10 0 8.21 0 6C0 3.79 1.79 2 4 2C6.21 2 8 3.79 8 6C8 8.21 6.21 10 4 10ZM4 4C2.9 4 2 4.9 2 6C2 7.1 2.9 8 4 8C5.1 8 6 7.1 6 6C6 4.9 5.1 4 4 4Z" fill="black"/>
<path d="M9 22C6.24 22 4 19.76 4 17C4 14.24 6.24 12 9 12C11.76 12 14 14.24 14 17C14 19.76 11.76 22 9 22ZM9 14C7.35 14 6 15.35 6 17C6 18.65 7.35 20 9 20C10.65 20 12 18.65 12 17C12 15.35 10.65 14 9 14Z" fill="black"/>
<path d="M52 10C49.79 10 48 8.21 48 6C48 3.79 49.79 2 52 2C54.21 2 56 3.79 56 6C56 8.21 54.21 10 52 10ZM52 4C50.9 4 50 4.9 50 6C50 7.1 50.9 8 52 8C53.1 8 54 7.1 54 6C54 4.9 53.1 4 52 4Z" fill="black"/>
<path d="M47 22C44.24 22 42 19.76 42 17C42 14.24 44.24 12 47 12C49.76 12 52 14.24 52 17C52 19.76 49.76 22 47 22ZM47 14C45.35 14 44 15.35 44 17C44 18.65 45.35 20 47 20C48.65 20 50 18.65 50 17C50 15.35 48.65 14 47 14Z" fill="black"/>
<path d="M31 30H27V28H31C32.1 28 33 27.1 33 26H35C35 28.21 33.21 30 31 30Z" fill="black"/>
</g>
<defs>
<clipPath id="clip0_958_510">
<rect width="56" height="36" fill="white"/>
</clipPath>
</defs>
</svg>
