<svg width="64" height="64" viewBox="0 0 64 64" fill="none" xmlns="http://www.w3.org/2000/svg">
<path d="M52 19.98C52 11.7 45.3 5 37.02 5H28.98C20.7 5 14 11.7 14 19.98C14 23.28 14.86 26.5 16.5 29.36L28.86 50.98C29.58 52.22 30.9 53 32.34 53H33.7C35.14 53 36.46 52.24 37.18 50.98L49.54 29.36C51.18 26.5 52.04 23.26 52.04 19.98H52Z" stroke="black" stroke-width="2" stroke-miterlimit="10"/>
<path d="M33 16C36.3 16 39 18.7 39 22C39 25.3 36.3 28 33 28C29.7 28 27 25.3 27 22C27 18.7 29.7 16 33 16ZM33 14C28.58 14 25 17.58 25 22C25 26.42 28.58 30 33 30C37.42 30 41 26.42 41 22C41 17.58 37.42 14 33 14Z" fill="black"/>
<path d="M25.1172 59H41.1172" stroke="black" stroke-width="2" stroke-miterlimit="10"/>
</svg>
