<svg width="309" height="224" viewBox="0 0 309 224" fill="none" xmlns="http://www.w3.org/2000/svg">
<path d="M257.398 111.55C254.482 110.533 251.255 110.884 249.01 112.956C241.831 109.038 232.206 114.987 227.008 119.797C219.718 126.538 212.788 133.406 204.716 139.271C189.054 150.655 170.914 158.849 151.717 162.028C147.465 162.731 143.313 163.565 139.103 164.457C136.641 164.982 134.237 165.039 131.839 164.814C137.803 161.325 143.947 158.183 150.021 154.851C156.535 151.279 162.34 146.631 169.081 143.546C173.977 141.301 181.003 138.027 181.796 132.015C182.725 124.97 175.795 123.034 170.148 123.344C167.052 123.511 163.893 124.062 160.919 124.938C159.113 125.474 157.428 126.486 155.547 126.701C153.429 126.942 151.469 127.394 150.053 128.055C149.905 128.044 149.742 128.076 149.567 128.165C140.883 132.629 132.848 138.096 123.863 142.004C114.016 146.285 104.038 150.266 93.9005 153.818C75.19 160.376 56.0569 164.73 36.7284 169.032C22.9622 172.095 6.20624 178.7 1.28298 193.242C-0.793036 199.385 -0.217247 205.985 2.0595 211.986C3.00506 214.483 4.05099 217.279 6.35943 218.838C8.56222 220.322 11.2827 220.884 13.8711 221.293C20.7066 222.379 27.7323 222.095 34.6312 221.959C42.5127 221.802 50.3043 222.594 58.1646 223.087C72.6333 224 87.3556 224.755 101.756 222.604C114.206 220.742 126.092 216.514 137.835 212.138C155.885 205.413 172.726 196.935 188.805 186.333C205.878 175.08 222.027 162.322 237.055 148.493C237.674 147.927 238.714 147.003 240.03 145.818C240.056 145.797 240.088 145.781 240.114 145.76C240.162 145.723 240.193 145.671 240.241 145.629C249.517 137.261 271.518 116.461 257.398 111.545V111.55ZM166.545 128.915C168.452 128.616 179.133 127.325 178.346 131.276C177.929 133.369 174.395 135.268 172.752 136.217C170.539 137.497 168.209 138.547 165.874 139.575C165.15 139.895 164.464 140.262 163.803 140.656C160.888 140.939 155.436 140.703 154.998 137.099C154.543 133.395 159.002 131.223 161.543 129.182C163.175 128.899 164.876 129.177 166.556 128.915H166.545ZM188.203 181.402C173.048 191.453 157.142 199.889 140.106 206.315C128.902 210.538 117.587 214.882 105.781 217.138C93.61 219.462 81.1592 219.446 68.8246 218.958C59.8656 218.601 50.9435 217.752 41.995 217.321C36.2846 217.043 30.5373 217.531 24.8217 217.489C19.5656 217.447 12.223 217.846 7.6325 214.788C5.47726 213.35 4.57924 209.935 3.8978 207.585C3.08958 204.794 2.73565 201.851 3.11599 198.96C4.9807 184.843 21.0077 177.75 33.131 174.414C41.9738 171.98 51.0808 170.448 59.9871 168.229C68.645 166.073 77.2449 163.586 85.7338 160.837C94.8567 157.878 103.842 154.531 112.717 150.906C121.565 147.292 130.307 143.578 138.5 138.646C142.198 136.422 145.885 134.198 149.673 132.126C149.763 132.11 149.852 132.094 149.948 132.068C151.11 131.727 152.425 131.375 153.666 131.165C152.451 133.128 151.786 135.399 151.965 137.576C152.129 139.585 152.943 141.626 154.454 143.016C155.431 143.919 156.524 144.433 157.671 144.753C154.744 146.652 151.744 148.436 148.68 150.109C140.566 154.542 132.336 158.592 124.602 163.691C123.282 164.562 122.669 168.166 124.724 168.68C128.606 169.651 132.642 170.49 136.667 170.044C139.879 169.687 142.98 168.628 146.155 168.056C149.451 167.463 152.716 166.87 155.954 166.214C155.874 166.975 155.874 167.71 155.917 168.239C156.07 170.27 156.794 172.935 158.896 173.727C160.227 174.225 160.439 171.943 160.106 171.188C159.641 170.133 158.885 169.042 158.764 167.883C158.679 167.064 158.959 166.314 159.123 165.543C164.009 164.467 168.843 163.182 173.639 161.43C177.126 160.155 180.549 158.713 183.903 157.133C183.993 158.046 184.236 158.975 184.368 159.851C184.659 161.818 184.711 163.922 185.678 165.685C186.349 166.907 187.527 165.726 187.654 164.84C187.929 162.915 187.332 160.942 186.978 159.054C186.819 158.188 186.787 156.929 186.481 155.885C194.363 151.956 201.832 147.224 208.852 141.904C208.842 142.749 208.831 143.593 208.8 144.433C208.752 145.66 208.615 146.767 209.56 147.712C209.893 148.042 210.416 147.979 210.738 147.685C211.689 146.804 211.472 145.534 211.425 144.37C211.377 143.252 211.377 142.135 211.356 141.018C211.356 140.745 211.293 140.414 211.177 140.11C214.684 137.345 218.076 134.439 221.335 131.407C225.397 127.63 229.111 123.076 233.918 120.191C236.776 118.475 241.202 116.492 244.984 116.818C243.542 118.014 242.216 119.346 241.06 120.763C235.994 126.958 234.863 135.058 237.029 142.555C235.904 143.578 234.784 144.601 233.664 145.618C219.396 158.602 204.309 170.726 188.208 181.407L188.203 181.402ZM239.961 139.853C238.624 133.925 239.591 128.322 243.854 123.433C247.113 119.698 252.01 116.235 257.219 116.597C257.752 116.802 258.233 117.069 258.529 117.41C258.302 117.211 258.349 117.94 258.175 118.454C257.868 119.362 257.425 120.227 256.965 121.062C255.851 123.071 254.493 124.986 252.982 126.717C248.962 131.333 244.498 135.656 239.961 139.858V139.853Z" fill="#1B1B1B"/>
<path d="M210.804 33.3982C213.496 36.6662 212.804 41.145 210.187 44.2637C207.436 47.5357 203.217 49.2527 199.116 50.1775C197.506 50.5424 197.707 54.1297 199.204 53.7937C204.593 52.5786 210.204 50.165 213.06 45.1885C215.589 40.7801 215.777 34.8456 212.439 30.798C211.038 29.0977 209.822 32.208 210.804 33.3982Z" fill="#1B1B1B"/>
<path d="M199.977 54.3999C205.97 56.2413 210.83 60.9276 212.39 67.0074C212.982 69.3174 215.167 67.8866 214.68 65.9914C212.864 58.9162 207.635 53.0853 200.527 50.8997C198.832 50.3771 198.509 53.952 199.973 54.4041L199.977 54.3999Z" fill="#1B1B1B"/>
<path d="M212.85 32.7282C214.633 42.4159 223.158 49.4784 233.215 48.8605L232.808 45.3147C223.792 48.4624 216.717 55.6991 213.639 64.6237C213.098 66.1996 214.985 68.6423 215.757 66.3987C218.604 58.1293 225.222 51.6847 233.529 48.7858C234.8 48.3421 234.636 45.1488 233.122 45.24C224.513 45.7709 216.704 40.2137 215.14 31.708C214.708 29.3524 212.498 30.8288 212.85 32.724V32.7282Z" fill="#1B1B1B"/>
<path d="M280.933 44.7333C283.336 50.7674 280.422 58.0664 275.691 62.2052C270.961 66.3441 264.867 67.7707 259.328 69.9977L260.116 73.7757C265.547 71.3497 273.225 72.063 278.316 75.1028C283.55 78.2298 282.913 84.9191 284.645 89.8874C285.328 91.8407 287.018 90.2316 286.997 88.8589C286.951 85.732 285.919 82.2525 284.913 79.3039C283.906 76.3553 282.305 73.4191 279.629 71.6773C274.077 68.0568 265.371 67.2772 259.323 69.9977C257.818 70.6737 258.317 74.5015 260.112 73.7757C266.734 71.0925 274.324 68.8821 278.962 63.13C283.454 57.5604 285.194 50.0333 282.464 43.315C281.789 41.652 280.468 43.5638 280.933 44.7333Z" fill="#1B1B1B"/>
<path d="M281.755 44.9571C282.111 58.4145 294.092 68.3842 307.365 67.8368C309.189 67.7622 308.929 64.2247 307.269 63.9385C301.385 62.9391 294.009 65.3859 289.597 69.28C283.789 74.4059 283.705 84.1641 284.778 91.152C284.904 91.9648 285.642 92.9767 286.573 92.6118C287.504 92.2468 287.655 90.7746 287.504 89.9369C286.418 83.9152 286.649 75.7827 292.189 71.8678C296.344 68.9317 302.266 67.2562 307.361 67.8327L307.265 63.9344C301.498 64.4984 295.535 62.6985 291.128 58.9661C286.72 55.2337 284.422 50.0954 283.701 44.5051C283.483 42.8006 281.713 43.4766 281.751 44.953L281.755 44.9571Z" fill="#1B1B1B"/>
<path d="M260.674 3.41932C259.94 4.33166 259.78 5.58822 259.344 6.654C258.812 7.94373 258.086 9.16296 257.243 10.2785C255.507 12.5677 253.192 14.2804 250.563 15.4416L251.297 18.9541C253.792 17.4404 256.782 16.8225 259.181 18.867C261.215 20.6005 261.689 23.1385 262.963 25.3364C263.983 27.0906 265.215 24.5028 264.989 23.4702C264.318 20.4512 262.506 17.0174 259.894 15.2176C256.967 13.198 253.482 13.65 250.563 15.4416C249.338 16.1922 249.594 19.7172 251.297 18.9541C254.375 17.5773 256.983 15.4457 258.967 12.7418C260.661 10.4319 262.641 6.84477 262.007 3.91696C261.852 3.19952 261.211 2.76823 260.678 3.42761L260.674 3.41932Z" fill="#1B1B1B"/>
<path d="M259.349 2.30331C260.225 9.97143 266.662 15.0642 274.446 13.8988C276.161 13.6417 276.094 10.2078 274.349 10.0544C266.604 9.37009 263.362 18.6929 263.073 24.81C263.006 26.2366 264.901 27.5969 265.438 25.7099C266.222 22.9562 266.314 20.0656 267.845 17.5483C269.258 15.2259 271.674 13.708 274.442 13.9029L274.01 10.1332C268.143 11.7713 262.385 7.58266 261.487 1.81395C261.206 -0.00251275 259.156 0.636151 259.349 2.30331Z" fill="#1B1B1B"/>
<path d="M45.9922 55.6898V14.4656C45.9922 13.9953 46.3786 13.6132 46.8542 13.6132H55.459C55.9346 13.6132 56.321 13.9953 56.321 14.4656V15.127C56.321 15.8471 57.1829 16.2586 57.7328 15.7883C59.7243 14.1129 63.0087 12.7461 67.051 12.7461C77.6324 12.7461 84.0229 20.7411 84.0229 31.5725C84.0229 42.404 76.815 50.5312 66.62 50.5312C62.9492 50.5312 59.9918 49.5612 58.0598 48.1504C57.495 47.7536 56.7074 48.1504 56.7074 48.8264V55.6604C56.7074 56.1307 56.321 56.5128 55.8454 56.5128H46.869C46.3786 56.5275 45.9922 56.1454 45.9922 55.6898ZM64.4651 22.7104C60.1255 22.7104 56.2467 25.6204 56.2467 31.646C56.2467 37.6716 60.1255 40.6404 64.4651 40.6404C68.8047 40.6404 72.7727 37.6716 72.7727 31.646C72.7727 25.6204 68.8938 22.7104 64.4651 22.7104Z" fill="#1B1B1B"/>
<path d="M111.856 23.5191C111.856 24.0482 111.38 24.4303 110.875 24.3422C109.998 24.2099 109.151 24.1658 108.349 24.1658C103.86 24.1658 99.8329 26.7818 99.8329 33.9686V49.7384C99.8329 50.2087 99.4465 50.5908 98.9709 50.5908H89.5338C89.0583 50.5908 88.6719 50.2087 88.6719 49.7384V14.4952C88.6719 14.0249 89.0583 13.6428 89.5338 13.6428H98.6142C99.0898 13.6428 99.4762 14.0249 99.4762 14.4952V15.7886C99.4762 16.5528 100.427 16.9349 100.962 16.3764C103.221 14.0249 106.625 13.2754 108.973 13.2754C109.76 13.2754 110.563 13.3342 111.202 13.4665C111.603 13.5546 111.915 13.8927 111.915 14.2895V23.5044H111.9L111.856 23.5191Z" fill="#1B1B1B"/>
<path d="M134.597 12.7891C123.718 12.7891 115.188 20.7108 115.188 31.8954C115.188 43.0799 123.703 51.0898 134.597 51.0898C136.425 51.0898 138.163 50.8841 139.813 50.4579C136.826 48.9147 134.597 46.0781 134.597 41.5073V36.0253C134.597 36.0253 133.675 38.9059 130.911 38.9059C128.697 38.9059 126.378 36.7895 126.378 31.9835V31.8954C126.378 25.7813 130.421 22.9595 134.597 22.9595C138.773 22.9595 142.815 25.8107 142.815 31.8954C142.815 36.6866 140.348 39.5085 137.242 40.5079V41.4779C137.242 44.579 138.446 46.7248 140.898 48.0328C141.819 48.5178 142.785 48.8412 143.662 49.0322C149.889 45.9752 154.006 39.7142 154.006 31.9101C154.006 20.6961 145.55 12.7891 134.597 12.7891Z" fill="#1B1B1B"/>
<path d="M45.9922 94.0194V61.1137C45.9922 60.6434 46.3786 60.2613 46.8542 60.2613H55.8157C56.2912 60.2613 56.6776 60.6434 56.6776 61.1137V61.2166C56.6776 61.9661 57.5545 62.3482 58.1192 61.8338C60.185 60.0114 63.291 59.2031 66.2485 59.2031C70.7069 59.2031 74.0656 60.8197 75.9679 63.5974C76.2949 64.0677 76.9785 64.0824 77.3352 63.6415C79.936 60.4817 83.1312 59.2031 87.4262 59.2031C94.0396 59.2031 100.385 63.0242 100.385 72.4301V93.99C100.385 94.4603 99.999 94.8424 99.5235 94.8424H90.8889C90.4133 94.8424 90.0269 94.4603 90.0269 93.99V74.7815C90.0269 71.5189 88.2733 68.947 84.4687 68.947C80.6642 68.947 78.6281 71.8128 78.6281 74.8697V93.99C78.6281 94.4603 78.2417 94.8424 77.7662 94.8424H68.9236C68.448 94.8424 68.0616 94.4603 68.0616 93.99V74.7815C68.0616 71.5189 66.3079 68.947 62.4439 68.947C58.5799 68.947 56.6776 71.8128 56.6776 74.9285V93.99C56.6776 94.4603 56.2912 94.8424 55.8157 94.8424H46.8542C46.3786 94.8571 45.9922 94.4749 45.9922 94.0194Z" fill="#1B1B1B"/>
<path d="M109.779 104.425L115.337 90.537C115.426 90.3312 115.426 90.0667 115.322 89.8609L101.367 61.4816C101.085 60.9085 101.501 60.2471 102.14 60.2471H112.187C112.528 60.2471 112.826 60.4382 112.959 60.7321L120.435 76.9719C120.762 77.648 121.728 77.6333 121.995 76.9572L128.757 60.7615C128.891 60.4382 129.203 60.2324 129.545 60.2324H139.012C139.636 60.2324 140.037 60.8497 139.799 61.4229L120.806 105.087C120.672 105.41 120.36 105.601 120.019 105.601H110.582C109.987 105.601 109.556 105.013 109.794 104.44L109.779 104.425Z" fill="#1B1B1B"/>
<path d="M149.978 77.5894C149.978 83.0859 153.709 86.1428 158.137 86.1428C161.897 86.1428 164.141 84.0265 165.137 81.7339C165.315 81.337 165.761 81.1166 166.192 81.2489L174.024 83.6297C174.47 83.762 174.738 84.247 174.604 84.6879C172.761 90.4636 167.099 95.916 158.167 95.916C147.764 95.916 139.367 88.3179 139.367 77.6041C139.367 66.8903 147.526 59.2188 157.81 59.2188C167.039 59.2188 172.583 64.5683 174.396 70.4469C174.544 70.8878 174.262 71.3581 173.816 71.5051L165.836 73.8859C165.405 74.0182 164.959 73.7977 164.78 73.3715C163.829 71.0201 161.749 68.9626 158.004 68.9626C153.575 68.9626 149.993 72.0341 149.993 77.6041L149.978 77.5894Z" fill="#1B1B1B"/>
<path d="M157.559 19.6236C158.124 17.6249 159.506 15.7878 161.378 14.7149C163.251 13.6421 165.614 13.3922 167.531 14.0389C169.463 14.7003 170.994 16.2434 172.257 17.9482C173.52 19.653 174.56 21.446 174.59 23.3125C174.635 25.179 173.728 27.119 172.361 28.4417C170.964 29.7791 169.091 30.5433 167.055 30.9695C165.019 31.3957 162.849 31.4545 161.244 30.5433C159.639 29.6321 158.584 27.7215 157.915 25.7228C157.276 23.7093 157.009 21.5783 157.544 19.6089L157.559 19.6236Z" fill="#1B1B1B"/>
</svg>
