<svg width="64" height="64" viewBox="0 0 64 64" fill="none" xmlns="http://www.w3.org/2000/svg">
<path d="M24 41H35C36.66 41 38 39.66 38 38C38 36.34 36.66 35 35 35H17L7 45" stroke="black" stroke-width="2" stroke-miterlimit="10"/>
<path d="M43 47H17L7 57" stroke="black" stroke-width="2" stroke-miterlimit="10"/>
<path d="M54.8197 31.2796C54.0397 30.4996 53.0197 30.0996 51.9997 30.0996C50.9797 30.0996 49.9597 30.4996 49.1797 31.2796L39.8997 40.5596L41.2797 41.9996L50.5997 32.6796C50.9797 32.2996 51.4797 32.0996 52.0197 32.0996C52.5597 32.0996 53.0597 32.2996 53.4397 32.6796C53.8197 33.0596 54.0197 33.5596 54.0197 34.0996C54.0197 34.6396 53.8197 35.1396 53.4397 35.5196L44.0197 44.9396L43.5397 45.4196C43.1597 45.7996 42.6597 45.9996 42.1197 45.9996H38.6797C38.8397 46.2996 39.0397 46.5796 39.2997 46.8196C40.0797 47.5996 41.0997 47.9996 42.1197 47.9996C43.1397 47.9996 44.1597 47.5996 44.9397 46.8196L54.8397 36.9196C56.3997 35.3596 56.3997 32.8196 54.8397 31.2596L54.8197 31.2796Z" fill="black"/>
<path d="M35.0009 19.0009L38.5809 15.4209C39.3609 14.6409 40.6209 14.6409 41.4009 15.4209L43.5809 17.6009C44.3609 18.3809 44.3609 19.6409 43.5809 20.4209L35.0009 29.0009L26.4209 20.4209C25.6409 19.6409 25.6409 18.3809 26.4209 17.6009L28.6009 15.4209C29.3809 14.6409 30.6409 14.6409 31.4209 15.4209L35.0009 19.0009Z" stroke="black" stroke-width="2" stroke-miterlimit="10"/>
</svg>
