<svg width="42" height="52" viewBox="0 0 42 52" fill="none" xmlns="http://www.w3.org/2000/svg">
<path d="M34 22H32C32 18.69 29.31 16 26 16V14C30.41 14 34 17.59 34 22Z" fill="black"/>
<path d="M16 16C11.59 16 8 12.41 8 8H10C10 11.31 12.69 14 16 14V16Z" fill="black"/>
<path d="M10 0H8V8H10V0Z" fill="black"/>
<path d="M26 16V14H16V16H26Z" fill="black"/>
<path d="M32 8V6L10 6V8L32 8Z" fill="black"/>
<path d="M32 24V22H10V24H32Z" fill="black"/>
<path d="M32 30V28H10V30H32Z" fill="black"/>
<path d="M32 46V44H10V46H32Z" fill="black"/>
<path d="M16 38C11.59 38 8 34.41 8 30H10C10 33.31 12.69 36 16 36V38Z" fill="black"/>
<path d="M10 21.9997H8C8 20.3597 8.5 18.7797 9.43 17.4297L11.07 18.5697C10.37 19.5797 10 20.7697 10 21.9997Z" fill="black"/>
<path d="M32.5697 34.57L30.9297 33.43C31.6297 32.42 31.9997 31.24 31.9997 30H33.9997C33.9997 31.64 33.4997 33.22 32.5697 34.57Z" fill="black"/>
<path d="M34 0H32V8H34V0Z" fill="black"/>
<path d="M34 22H32V30H34V22Z" fill="black"/>
<path d="M10 22H8V30H10V22Z" fill="black"/>
<path d="M32.5697 12.57L30.9297 11.43C31.6297 10.42 31.9997 9.23 31.9997 8H33.9997C33.9997 9.64 33.4997 11.22 32.5697 12.57Z" fill="black"/>
<path d="M8 52H10L10 44H8V52Z" fill="black"/>
<path d="M10 43.9997H8C8 42.3597 8.5 40.7797 9.43 39.4297L11.07 40.5697C10.37 41.5797 10 42.7697 10 43.9997Z" fill="black"/>
<path d="M34 44H32C32 40.69 29.31 38 26 38V36C30.41 36 34 39.59 34 44Z" fill="black"/>
<path d="M32 52H34V44H32V52Z" fill="black"/>
<path d="M16 36V38H26V36H16Z" fill="black"/>
<path d="M3 6H1C0.447715 6 0 6.44772 0 7V9C0 9.55228 0.447715 10 1 10H3C3.55228 10 4 9.55228 4 9V7C4 6.44772 3.55228 6 3 6Z" fill="black"/>
<path d="M3 18H1C0.447715 18 0 18.4477 0 19V21C0 21.5523 0.447715 22 1 22H3C3.55228 22 4 21.5523 4 21V19C4 18.4477 3.55228 18 3 18Z" fill="black"/>
<path d="M41 30H39C38.4477 30 38 30.4477 38 31V33C38 33.5523 38.4477 34 39 34H41C41.5523 34 42 33.5523 42 33V31C42 30.4477 41.5523 30 41 30Z" fill="black"/>
<path d="M41 42H39C38.4477 42 38 42.4477 38 43V45C38 45.5523 38.4477 46 39 46H41C41.5523 46 42 45.5523 42 45V43C42 42.4477 41.5523 42 41 42Z" fill="black"/>
</svg>
