<svg width="56" height="44" viewBox="0 0 56 44" fill="none" xmlns="http://www.w3.org/2000/svg">
<path d="M30 8H24C21.79 8 20 6.21 20 4C20 2.9 19.1 2 18 2H12C10.9 2 10 2.9 10 4C10 6.21 8.21 8 6 8H0V6H6C7.1 6 8 5.1 8 4C8 1.79 9.79 0 12 0H18C20.21 0 22 1.79 22 4C22 5.1 22.9 6 24 6H30V8Z" fill="black"/>
<path d="M30 20H24C21.79 20 20 18.21 20 16C20 14.9 19.1 14 18 14H12C10.9 14 10 14.9 10 16C10 18.21 8.21 20 6 20H0V18H6C7.1 18 8 17.1 8 16C8 13.79 9.79 12 12 12H18C20.21 12 22 13.79 22 16C22 17.1 22.9 18 24 18H30V20Z" fill="black"/>
<path d="M30 32H24C21.79 32 20 30.21 20 28C20 26.9 19.1 26 18 26H12C10.9 26 10 26.9 10 28C10 30.21 8.21 32 6 32H0V30H6C7.1 30 8 29.1 8 28C8 25.79 9.79 24 12 24H18C20.21 24 22 25.79 22 28C22 29.1 22.9 30 24 30H30V32Z" fill="black"/>
<path d="M30 44H24C21.79 44 20 42.21 20 40C20 38.9 19.1 38 18 38H12C10.9 38 10 38.9 10 40C10 42.21 8.21 44 6 44H0V42H6C7.1 42 8 41.1 8 40C8 37.79 9.79 36 12 36H18C20.21 36 22 37.79 22 40C22 41.1 22.9 42 24 42H30V44Z" fill="black"/>
<path d="M44 44H38C35.79 44 34 42.21 34 40C34 38.9 33.1 38 32 38H26V36H32C34.21 36 36 37.79 36 40C36 41.1 36.9 42 38 42H44C45.1 42 46 41.1 46 40C46 37.79 47.79 36 50 36H56V38H50C48.9 38 48 38.9 48 40C48 42.21 46.21 44 44 44Z" fill="black"/>
<path d="M44 32H38C35.79 32 34 30.21 34 28C34 26.9 33.1 26 32 26H26V24H32C34.21 24 36 25.79 36 28C36 29.1 36.9 30 38 30H44C45.1 30 46 29.1 46 28C46 25.79 47.79 24 50 24H56V26H50C48.9 26 48 26.9 48 28C48 30.21 46.21 32 44 32Z" fill="black"/>
<path d="M44 20H38C35.79 20 34 18.21 34 16C34 14.9 33.1 14 32 14H26V12H32C34.21 12 36 13.79 36 16C36 17.1 36.9 18 38 18H44C45.1 18 46 17.1 46 16C46 13.79 47.79 12 50 12H56V14H50C48.9 14 48 14.9 48 16C48 18.21 46.21 20 44 20Z" fill="black"/>
<path d="M44 8H38C35.79 8 34 6.21 34 4C34 2.9 33.1 2 32 2H26V0H32C34.21 0 36 1.79 36 4C36 5.1 36.9 6 38 6H44C45.1 6 46 5.1 46 4C46 1.79 47.79 0 50 0H56V2H50C48.9 2 48 2.9 48 4C48 6.21 46.21 8 44 8Z" fill="black"/>
</svg>
