<svg width="45" height="63" viewBox="0 0 45 63" fill="none" xmlns="http://www.w3.org/2000/svg">
<path d="M20.0039 24.29H18.0039V38.29H20.0039V24.29Z" fill="black"/>
<path d="M26.0039 41.2963L27.0039 43.0283L39.1283 36.0283L38.1283 34.2963L26.0039 41.2963Z" fill="black"/>
<path d="M0.0078125 45.2924L1.00781 47.0244L13.1322 40.0244L12.1322 38.2924L0.0078125 45.2924Z" fill="black"/>
<path d="M26.0039 62.29H28.0039V48.29H26.0039V62.29Z" fill="black"/>
<path d="M26.0039 14.29H28.0039V3.91006e-05H26.0039V14.29Z" fill="black"/>
<path d="M38.1211 28.2887L39.1211 26.5566L26.9967 19.5566L25.9967 21.2887L38.1211 28.2887Z" fill="black"/>
<path d="M12.125 24.2916L13.125 22.5596L1.00064 15.5596L0.000644565 17.2916L12.125 24.2916Z" fill="black"/>
<path d="M28.0022 15.3701C28.7522 15.3701 29.4822 15.5801 30.1222 15.9801L40.1322 22.2301C41.3022 22.9601 42.0122 24.2301 42.0122 25.6101V36.9701C42.0122 38.3601 41.3122 39.6201 40.1322 40.3501L30.1222 46.6001C29.4822 47.0001 28.7522 47.2101 28.0022 47.2101C27.2522 47.2101 26.5222 47.0001 25.8822 46.6001L15.8722 40.3501C14.7022 39.6201 13.9922 38.3501 13.9922 36.9701V25.6101C13.9922 24.2201 14.6922 22.9601 15.8722 22.2301L25.8822 15.9801C26.5122 15.5801 27.2522 15.3701 28.0022 15.3701ZM28.0022 13.3701C26.9022 13.3701 25.8022 13.6701 24.8222 14.2801L14.8122 20.5301C13.0622 21.6201 11.9922 23.5501 11.9922 25.6101V36.9701C11.9922 39.0401 13.0522 40.9601 14.8122 42.0501L24.8222 48.3001C25.7922 48.9101 26.8922 49.2101 28.0022 49.2101C29.1122 49.2101 30.2022 48.9101 31.1822 48.3001L41.1922 42.0501C42.9422 40.9601 44.0122 39.0301 44.0122 36.9701V25.6101C44.0122 23.5401 42.9522 21.6201 41.1922 20.5301L31.1822 14.2801C30.2122 13.6701 29.1122 13.3701 28.0022 13.3701Z" fill="black"/>
</svg>
